[
   {
      "song_name": "Twinkle Twinkle-English",
      "song_data": [{
							"Sr.No.": 1,
							"Type": "NA",
							"Note": "NA",
							"Channel": "NA",
							"Velocity": "NA",
							"Time": 0
						},{
							"Sr.No.": 2,
							"Type": "NA",
							"Note": "NA",
							"Channel": "NA",
							"Velocity": "NA",
							"Time": 0,
							"Lyrics": "Lyrics_data_1"
						},{
							"Sr.No.": 3,
							"Type": "NA",
							"Note": "NA",
							"Channel": "NA",
							"Velocity": "NA",
							"Time": 0
						},{
							"Sr.No.": 4,
							"Type": "NA",
							"Note": "NA",
							"Channel": "NA",
							"Velocity": "NA",
							"Time": 0
						},{
							"Sr.No.": 5,
							"Type": "note_on",
							"Note": 60,
							"Channel": 1,
							"Velocity": 70,
							"Time": 0
						},{
							"Sr.No.": 6,
							"Type": "NA",
							"Note": "NA",
							"Channel": 0,
							"Velocity": "NA",
							"Time": 0
						},{
							"Sr.No.": 7,
							"Type": "NA",
							"Note": "NA",
							"Channel": 0,
							"Velocity": "NA",
							"Time": 0
						},{
							"Sr.No.": 8,
							"Type": "NA",
							"Note": "NA",
							"Channel": 0,
							"Velocity": "NA",
							"Time": 0
						},{
							"Sr.No.": 9,
							"Type": "NA",
							"Note": "NA",
							"Channel": 0,
							"Velocity": "NA",
							"Time": 0
						},{
							"Sr.No.": 10,
							"Type": "NA",
							"Note": "NA",
							"Channel": 0,
							"Velocity": "NA",
							"Time": 0
						},{
							"Sr.No.": 11,
							"Type": "NA",
							"Note": "NA",
							"Channel": 0,
							"Velocity": "NA",
							"Time": 0
						},{
							"Sr.No.": 12,
							"Type": "NA",
							"Note": "NA",
							"Channel": 0,
							"Velocity": "NA",
							"Time": 0
						},{
							"Sr.No.": 13,
							"Type": "note_off",
							"Note": 60,
							"Channel": 1,
							"Velocity": 0,
							"Time": 0.337890625
						},{
							"Sr.No.": 14,
							"Type": "note_on",
							"Note": 60,
							"Channel": 1,
							"Velocity": 72,
							"Time": 0.037109375
						},{
							"Sr.No.": 15,
							"Type": "note_off",
							"Note": 60,
							"Channel": 1,
							"Velocity": 0,
							"Time": 0.11328125
						},{
							"Sr.No.": 16,
							"Type": "note_on",
							"Note": 62,
							"Channel": 1,
							"Velocity": 83,
							"Time": 0.01171875
						},{
							"Sr.No.": 17,
							"Type": "note_on",
							"Note": 53,
							"Channel": 0,
							"Velocity": 73,
							"Time": 0
						},{
							"Sr.No.": 18,
							"Type": "note_on",
							"Note": 57,
							"Channel": 0,
							"Velocity": 72,
							"Time": 0
						},{
							"Sr.No.": 19,
							"Type": "note_off",
							"Note": 62,
							"Channel": 1,
							"Velocity": 0,
							"Time": 0.451171875
						},{
							"Sr.No.": 20,
							"Type": "note_on",
							"Note": 60,
							"Channel": 1,
							"Velocity": 72,
							"Time": 0.048828125
						},{
							"Sr.No.": 21,
							"Type": "note_off",
							"Note": 60,
							"Channel": 1,
							"Velocity": 0,
							"Time": 0.451171875
						},{
							"Sr.No.": 22,
							"Type": "note_on",
							"Note": 65,
							"Channel": 1,
							"Velocity": 85,
							"Time": 0.048828125
						},{
							"Sr.No.": 23,
							"Type": "note_off",
							"Note": 53,
							"Channel": 0,
							"Velocity": 0,
							"Time": 0.40234375
						},{
							"Sr.No.": 24,
							"Type": "note_off",
							"Note": 57,
							"Channel": 0,
							"Velocity": 0,
							"Time": 0
						},{
							"Sr.No.": 25,
							"Type": "note_off",
							"Note": 65,
							"Channel": 1,
							"Velocity": 0,
							"Time": 0.048828125
						},{
							"Sr.No.": 26,
							"Type": "note_on",
							"Note": 64,
							"Channel": 1,
							"Velocity": 79,
							"Time": 0.048828125
						},{
							"Sr.No.": 27,
							"Type": "note_on",
							"Note": 48,
							"Channel": 0,
							"Velocity": 81,
							"Time": 0
						},{
							"Sr.No.": 28,
							"Type": "note_on",
							"Note": 58,
							"Channel": 0,
							"Velocity": 81,
							"Time": 0
						},{
							"Sr.No.": 29,
							"Type": "note_off",
							"Note": 64,
							"Channel": 1,
							"Velocity": 0,
							"Time": 0.90234375
						},{
							"Sr.No.": 30,
							"Type": "note_on",
							"Note": 96,
							"Channel": 3,
							"Velocity": 100,
							"Time": 0.02734375
						},{
							"Sr.No.": 31,
							"Type": "note_off",
							"Note": 96,
							"Channel": 3,
							"Velocity": 0,
							"Time": 0.0703125
						},{
							"Sr.No.": 32,
							"Type": "note_on",
							"Note": 60,
							"Channel": 1,
							"Velocity": 71,
							"Time": 0,
							"Lyrics": "Lyrics_data_2"
						},{
							"Sr.No.": 33,
							"Type": "note_off",
							"Note": 60,
							"Channel": 1,
							"Velocity": 0,
							"Time": 0.337890625
						},{
							"Sr.No.": 34,
							"Type": "note_on",
							"Note": 60,
							"Channel": 1,
							"Velocity": 72,
							"Time": 0.037109375
						},{
							"Sr.No.": 35,
							"Type": "note_off",
							"Note": 48,
							"Channel": 0,
							"Velocity": 0,
							"Time": 0.02734375
						},{
							"Sr.No.": 36,
							"Type": "note_off",
							"Note": 58,
							"Channel": 0,
							"Velocity": 0,
							"Time": 0
						},{
							"Sr.No.": 37,
							"Type": "note_off",
							"Note": 60,
							"Channel": 1,
							"Velocity": 0,
							"Time": 0.0859375
						},{
							"Sr.No.": 38,
							"Type": "note_on",
							"Note": 62,
							"Channel": 1,
							"Velocity": 85,
							"Time": 0.01171875
						},{
							"Sr.No.": 39,
							"Type": "note_on",
							"Note": 48,
							"Channel": 0,
							"Velocity": 80,
							"Time": 0
						},{
							"Sr.No.": 40,
							"Type": "note_on",
							"Note": 58,
							"Channel": 0,
							"Velocity": 79,
							"Time": 0
						},{
							"Sr.No.": 41,
							"Type": "note_off",
							"Note": 62,
							"Channel": 1,
							"Velocity": 0,
							"Time": 0.451171875
						},{
							"Sr.No.": 42,
							"Type": "note_on",
							"Note": 60,
							"Channel": 1,
							"Velocity": 69,
							"Time": 0.048828125
						},{
							"Sr.No.": 43,
							"Type": "note_off",
							"Note": 60,
							"Channel": 1,
							"Velocity": 0,
							"Time": 0.451171875
						},{
							"Sr.No.": 44,
							"Type": "note_on",
							"Note": 67,
							"Channel": 1,
							"Velocity": 90,
							"Time": 0.048828125
						},{
							"Sr.No.": 45,
							"Type": "note_off",
							"Note": 48,
							"Channel": 0,
							"Velocity": 0,
							"Time": 0.40234375
						},{
							"Sr.No.": 46,
							"Type": "note_off",
							"Note": 58,
							"Channel": 0,
							"Velocity": 0,
							"Time": 0
						},{
							"Sr.No.": 47,
							"Type": "note_off",
							"Note": 67,
							"Channel": 1,
							"Velocity": 0,
							"Time": 0.048828125
						},{
							"Sr.No.": 48,
							"Type": "note_on",
							"Note": 65,
							"Channel": 1,
							"Velocity": 75,
							"Time": 0.048828125
						},{
							"Sr.No.": 49,
							"Type": "note_on",
							"Note": 53,
							"Channel": 0,
							"Velocity": 73,
							"Time": 0
						},{
							"Sr.No.": 50,
							"Type": "note_on",
							"Note": 57,
							"Channel": 0,
							"Velocity": 73,
							"Time": 0
						},{
							"Sr.No.": 51,
							"Type": "note_off",
							"Note": 65,
							"Channel": 1,
							"Velocity": 0,
							"Time": 0.90234375
						},{
							"Sr.No.": 52,
							"Type": "note_on",
							"Note": 96,
							"Channel": 3,
							"Velocity": 100,
							"Time": 0.01171875
						},{
							"Sr.No.": 53,
							"Type": "note_off",
							"Note": 96,
							"Channel": 3,
							"Velocity": 0,
							"Time": 0.0859375
						},{
							"Sr.No.": 54,
							"Type": "note_on",
							"Note": 60,
							"Channel": 1,
							"Velocity": 69,
							"Time": 0,
							"Lyrics": "Lyrics_data_3"
						},{
							"Sr.No.": 55,
							"Type": "note_off",
							"Note": 60,
							"Channel": 1,
							"Velocity": 0,
							"Time": 0.337890625
						},{
							"Sr.No.": 56,
							"Type": "note_on",
							"Note": 60,
							"Channel": 1,
							"Velocity": 74,
							"Time": 0.037109375
						},{
							"Sr.No.": 57,
							"Type": "note_off",
							"Note": 53,
							"Channel": 0,
							"Velocity": 0,
							"Time": 0.02734375
						},{
							"Sr.No.": 58,
							"Type": "note_off",
							"Note": 57,
							"Channel": 0,
							"Velocity": 0,
							"Time": 0
						},{
							"Sr.No.": 59,
							"Type": "note_off",
							"Note": 60,
							"Channel": 1,
							"Velocity": 0,
							"Time": 0.0859375
						},{
							"Sr.No.": 60,
							"Type": "note_on",
							"Note": 72,
							"Channel": 1,
							"Velocity": 99,
							"Time": 0.01171875
						},{
							"Sr.No.": 61,
							"Type": "note_on",
							"Note": 53,
							"Channel": 0,
							"Velocity": 77,
							"Time": 0
						},{
							"Sr.No.": 62,
							"Type": "note_on",
							"Note": 57,
							"Channel": 0,
							"Velocity": 79,
							"Time": 0
						},{
							"Sr.No.": 63,
							"Type": "note_off",
							"Note": 72,
							"Channel": 1,
							"Velocity": 0,
							"Time": 0.451171875
						},{
							"Sr.No.": 64,
							"Type": "note_on",
							"Note": 69,
							"Channel": 1,
							"Velocity": 74,
							"Time": 0.048828125
						},{
							"Sr.No.": 65,
							"Type": "note_off",
							"Note": 69,
							"Channel": 1,
							"Velocity": 0,
							"Time": 0.451171875
						},{
							"Sr.No.": 66,
							"Type": "note_on",
							"Note": 65,
							"Channel": 1,
							"Velocity": 66,
							"Time": 0.048828125
						},{
							"Sr.No.": 67,
							"Type": "note_off",
							"Note": 53,
							"Channel": 0,
							"Velocity": 0,
							"Time": 0.40234375
						},{
							"Sr.No.": 68,
							"Type": "note_off",
							"Note": 57,
							"Channel": 0,
							"Velocity": 0,
							"Time": 0
						},{
							"Sr.No.": 69,
							"Type": "note_off",
							"Note": 65,
							"Channel": 1,
							"Velocity": 0,
							"Time": 0.048828125
						},{
							"Sr.No.": 70,
							"Type": "note_on",
							"Note": 64,
							"Channel": 1,
							"Velocity": 73,
							"Time": 0.048828125
						},{
							"Sr.No.": 71,
							"Type": "note_on",
							"Note": 53,
							"Channel": 0,
							"Velocity": 81,
							"Time": 0
						},{
							"Sr.No.": 72,
							"Type": "note_on",
							"Note": 58,
							"Channel": 0,
							"Velocity": 84,
							"Time": 0
						},{
							"Sr.No.": 73,
							"Type": "note_off",
							"Note": 64,
							"Channel": 1,
							"Velocity": 0,
							"Time": 0.451171875
						},{
							"Sr.No.": 74,
							"Type": "note_on",
							"Note": 62,
							"Channel": 1,
							"Velocity": 69,
							"Time": 0.048828125
						},{
							"Sr.No.": 75,
							"Type": "NA",
							"Note": "NA",
							"Channel": "NA",
							"Velocity": "NA",
							"Time": 0.388671875
						},{
							"Sr.No.": 76,
							"Type": "note_off",
							"Note": 62,
							"Channel": 1,
							"Velocity": 0,
							"Time": 0.3662109375
						},{
							"Sr.No.": 77,
							"Type": "note_on",
							"Note": 96,
							"Channel": 3,
							"Velocity": 100,
							"Time": 0.0732421875
						},{
							"Sr.No.": 78,
							"Type": "NA",
							"Note": "NA",
							"Channel": "NA",
							"Velocity": "NA",
							"Time": 0.029296875
						},{
							"Sr.No.": 79,
							"Type": "note_off",
							"Note": 96,
							"Channel": 3,
							"Velocity": 0,
							"Time": 0.05859375
						},{
							"Sr.No.": 80,
							"Type": "note_on",
							"Note": 70,
							"Channel": 1,
							"Velocity": 89,
							"Time": 0,
							"Lyrics": "Lyrics_data_4"
						},{
							"Sr.No.": 81,
							"Type": "note_off",
							"Note": 70,
							"Channel": 1,
							"Velocity": 0,
							"Time": 0.40546875
						},{
							"Sr.No.": 82,
							"Type": "NA",
							"Note": "NA",
							"Channel": "NA",
							"Velocity": "NA",
							"Time": 0.00234375
						},{
							"Sr.No.": 83,
							"Type": "note_on",
							"Note": 70,
							"Channel": 1,
							"Velocity": 78,
							"Time": 0.263671875
						},{
							"Sr.No.": 84,
							"Type": "NA",
							"Note": "NA",
							"Channel": "NA",
							"Velocity": "NA",
							"Time": 0.205078125
						},{
							"Sr.No.": 85,
							"Type": "note_off",
							"Note": 53,
							"Channel": 0,
							"Velocity": 0,
							"Time": 0
						},{
							"Sr.No.": 86,
							"Type": "note_off",
							"Note": 58,
							"Channel": 0,
							"Velocity": 0,
							"Time": 0
						},{
							"Sr.No.": 87,
							"Type": "note_off",
							"Note": 70,
							"Channel": 1,
							"Velocity": 0,
							"Time": 0.103125
						},{
							"Sr.No.": 88,
							"Type": "note_on",
							"Note": 69,
							"Channel": 1,
							"Velocity": 76,
							"Time": 0.014062499999999999
						},{
							"Sr.No.": 89,
							"Type": "note_on",
							"Note": 53,
							"Channel": 0,
							"Velocity": 75,
							"Time": 0
						},{
							"Sr.No.": 90,
							"Type": "note_on",
							"Note": 57,
							"Channel": 0,
							"Velocity": 75,
							"Time": 0
						},{
							"Sr.No.": 91,
							"Type": "note_off",
							"Note": 69,
							"Channel": 1,
							"Velocity": 0,
							"Time": 0.54140625
						},{
							"Sr.No.": 92,
							"Type": "note_on",
							"Note": 65,
							"Channel": 1,
							"Velocity": 65,
							"Time": 0.05859375
						},{
							"Sr.No.": 93,
							"Type": "note_off",
							"Note": 53,
							"Channel": 0,
							"Velocity": 0,
							"Time": 0.4828125
						},{
							"Sr.No.": 94,
							"Type": "note_off",
							"Note": 57,
							"Channel": 0,
							"Velocity": 0,
							"Time": 0
						},{
							"Sr.No.": 95,
							"Type": "note_off",
							"Note": 65,
							"Channel": 1,
							"Velocity": 0,
							"Time": 0.05859375
						},{
							"Sr.No.": 96,
							"Type": "note_on",
							"Note": 67,
							"Channel": 1,
							"Velocity": 77,
							"Time": 0.05859375
						},{
							"Sr.No.": 97,
							"Type": "note_on",
							"Note": 48,
							"Channel": 0,
							"Velocity": 78,
							"Time": 0
						},{
							"Sr.No.": 98,
							"Type": "note_on",
							"Note": 58,
							"Channel": 0,
							"Velocity": 79,
							"Time": 0
						},{
							"Sr.No.": 99,
							"Type": "note_off",
							"Note": 67,
							"Channel": 1,
							"Velocity": 0,
							"Time": 0.54140625
						},{
							"Sr.No.": 100,
							"Type": "note_off",
							"Note": 48,
							"Channel": 0,
							"Velocity": 0,
							"Time": 0
						},{
							"Sr.No.": 101,
							"Type": "note_off",
							"Note": 58,
							"Channel": 0,
							"Velocity": 0,
							"Time": 0
						},{
							"Sr.No.": 102,
							"Type": "note_on",
							"Note": 65,
							"Channel": 1,
							"Velocity": 73,
							"Time": 0.05859375
						},{
							"Sr.No.": 103,
							"Type": "note_on",
							"Note": 53,
							"Channel": 0,
							"Velocity": 76,
							"Time": 0
						},{
							"Sr.No.": 104,
							"Type": "note_on",
							"Note": 57,
							"Channel": 0,
							"Velocity": 76,
							"Time": 0
						},{
							"Sr.No.": 105,
							"Type": "note_off",
							"Note": 65,
							"Channel": 1,
							"Velocity": 0,
							"Time": 1.6781249999999999
						},{
							"Sr.No.": 106,
							"Type": "note_off",
							"Note": 53,
							"Channel": 0,
							"Velocity": 0,
							"Time": 0.0046875
						},{
							"Sr.No.": 107,
							"Type": "note_off",
							"Note": 57,
							"Channel": 0,
							"Velocity": 0,
							"Time": 0
						},{
							"Sr.No.": 108,
							"Type": "note_on",
							"Note": 96,
							"Channel": 3,
							"Velocity": 100,
							"Time": 0.03046875
						},{
							"Sr.No.": 109,
							"Type": "note_off",
							"Note": 96,
							"Channel": 3,
							"Velocity": 0,
							"Time": 0.075
						},{
							"Sr.No.": 110,
							"Type": "NA",
							"Note": "NA",
							"Channel": "NA",
							"Velocity": "NA",
							"Time": 0.021093749999999998
						}
					],
   },
   {
      "song_name": "Happy birthday_1-English",
      "song_data": "1-3LAVsQg",
   },
   {
      "song_name": "Happy birthday_2-English",
      "song_data": "sdfsd",
   },
   {
      "song_name": "Mere Naam tu-Zero",
      "song_data": "12hjx2yllJkQX",
   },
   {
      "song_name": "Filhall-Filhall",
      "song_data": "1gf80eGK6euMw1",
   },
   {
      "song_name": "Dhadak-Dhadak",
      "song_data": "1vA3MbJxmWEi7d_Tfb4",
   },
   {
      "song_name": "Mere Rashke Qamar-Baadshaho",
      "song_data": "1MTzXc2PvvNQBLtv_pB",
   },
   {
      "song_name": "Khairiyat_Chhichhore",
      "song_data": "sdfsd",
   },
   {
      "song_name": "Ek ladki ko dekha to-1942 luv story",
      "song_data": "sdfsd",
   },
   {
      "song_name": "Pardesi Pardesi Jana Nahi-Raja Hindustani",
      "song_data": "sdfsd",
   },
]